<svg xmlns="http://www.w3.org/2000/svg"  viewBox="0 0 40 40" width="40px" height="40px"><path fill="#dff0fe" d="M20,38.5C9.799,38.5,1.5,30.201,1.5,20S9.799,1.5,20,1.5S38.5,9.799,38.5,20S30.201,38.5,20,38.5z"/><path fill="#4788c7" d="M20,2c9.925,0,18,8.075,18,18s-8.075,18-18,18S2,29.925,2,20S10.075,2,20,2 M20,1C9.507,1,1,9.507,1,20s8.507,19,19,19s19-8.507,19-19S30.493,1,20,1L20,1z"/><path fill="#4788c7" d="M17 8H19V12.615H17zM21 8H23V12.615H21zM17 27.385H19V32H17zM21 27.385H23V32H21z"/><path fill="#4788c7" d="M14,11h6.681c1.322,0,2.308,0.059,2.959,0.178c0.65,0.119,1.231,0.366,1.744,0.743s0.94,0.878,1.283,1.504c0.342,0.626,0.513,1.328,0.513,2.106c0,0.843-0.211,1.617-0.633,2.32c-0.422,0.704-0.994,1.232-1.716,1.584c1.019,0.319,1.801,0.864,2.348,1.633C27.727,21.838,28,22.742,28,23.782c0,0.819-0.177,1.615-0.53,2.388s-0.836,1.392-1.448,1.854c-0.612,0.463-1.366,0.747-2.263,0.853c-0.562,0.066-1.919,0.106-4.07,0.123H14V11z M17,15v3h2.373c1.412,0,2.289-0.019,2.631-0.059c0.62-0.071,1.108-0.277,1.463-0.619C23.823,16.98,24,16.53,24,15.971c0-0.535-0.152-0.97-0.458-1.304c-0.306-0.334-0.761-0.537-1.364-0.607C21.818,14.02,20.786,14,19.081,14H17V15z M17,21v5h3.338c1.299,0,2.124-0.038,2.472-0.114c0.536-0.102,0.972-0.35,1.31-0.746c0.337-0.395,0.505-0.925,0.505-1.588c0-0.561-0.129-1.038-0.39-1.428s-0.636-0.676-1.126-0.855C22.618,21.089,21.551,21,19.911,21H17z"/></svg>